<?xml version="1.0" encoding="iso-8859-1"?>
<!-- Uploaded to: SVG Repo, www.svgrepo.com, Generator: SVG Repo Mixer Tools -->
<!DOCTYPE svg PUBLIC "-//W3C//DTD SVG 1.1//EN" "http://www.w3.org/Graphics/SVG/1.1/DTD/svg11.dtd">
<svg fill="#000000" version="1.1" id="Capa_1" xmlns="http://www.w3.org/2000/svg" xmlns:xlink="http://www.w3.org/1999/xlink"
	 width="800px" height="800px" viewBox="0 0 97.539 97.538"
	 xml:space="preserve">
  <path d="M52.439,89.465l-8.914,3.459c0.547,2.514,3.009,4.133,5.538,3.621c2.553-0.518,4.201-3.006,3.685-5.559L52.439,89.465z" style="fill: var(--icon-fill, #fff);"/>
  <polygon points="49.629,75.59 41.173,81.344 41.403,82.482 50.383,79.312" style="fill: var(--icon-fill, #fff);"/>
  <polygon points="51.831,86.457 42.354,87.18 43.149,91.1 52.069,87.639" style="fill: var(--icon-fill, #fff);"/>
  <polygon points="50.751,81.139 41.774,84.309 41.984,85.354 51.46,84.631" style="fill: var(--icon-fill, #fff);"/>
  <path id="Impaired" d="M70.48,49.946c0.407-0.54,0.696-1.182,0.794-1.9c0.305-2.235-1.26-4.295-3.495-4.601
    c-12.383-1.693-12.777-3.921-14.246-14.262c-0.022-0.167-0.074-0.32-0.117-0.478c-0.314-3.266-2.885-5.957-5.568-7.259
    c0,0-1.016-0.556-2.173-0.778c-1.108-0.211-2.392-0.218-2.392-0.218l-0.031-0.002c-3.644,0.105-7.933,2.137-8.84,6.368
    l-4.867,22.711c-0.63,2.947,0.638,5.593,2.723,7.457l-5.961,34.302c-0.506,2.903,1.44,5.667,4.345,6.172
    c0.31,0.054,0.617,0.08,0.92,0.08c2.546,0,4.802-1.83,5.252-4.425l3.11-17.893l0.87,4.299l8.457-5.756l-3.259-16.154
    c1.168-0.986,2.06-2.318,2.427-4.035l1.843-8.599c2.402,2.806,6.088,4.63,12.097,5.848l0.193,0.64l2.175,0.285
    c0.57,0.352,1.234,0.553,1.935,0.58v38.176h-0.354v1.952c-0.589,0.446-0.978,1.147-0.978,1.942v1.916h4.891v-1.916
    c0-0.795-0.387-1.496-0.978-1.942v-1.952h-0.444V51.812C69.551,51.385,70.137,50.727,70.48,49.946z" style="fill: var(--icon-fill, #fff);"/>
  <circle cx="50.188" cy="10.522" r="10.522" style="fill: var(--icon-fill, #fff);"/>
</svg>
